<svg xmlns="http://www.w3.org/2000/svg" width="30" height="22"><path d="M24.957 1.863c3.25 4.793 4.855 10.196 4.254 16.414a.1.1 0 0 1-.035.067 23.7 23.7 0 0 1-7.196 3.64.09.09 0 0 1-.101-.035 19 19 0 0 1-1.469-2.394.096.096 0 0 1 .05-.13 14 14 0 0 0 2.243-1.07.09.09 0 0 0 .008-.152c-.148-.113-.3-.23-.445-.351a.08.08 0 0 0-.094-.012c-4.652 2.156-9.75 2.156-14.457 0a.1.1 0 0 0-.094.012c-.14.12-.293.238-.445.351a.092.092 0 0 0 .011.152A15 15 0 0 0 9.43 19.43c.05.02.074.078.05.125a17 17 0 0 1-1.468 2.398.09.09 0 0 1-.102.031 23.8 23.8 0 0 1-7.183-3.64.1.1 0 0 1-.036-.067c-.503-5.379.52-10.828 4.247-16.414a.1.1 0 0 1 .039-.035 23.7 23.7 0 0 1 5.855-1.82.09.09 0 0 1 .094.047c.254.449.543 1.027.742 1.5a21.8 21.8 0 0 1 6.574 0 16 16 0 0 1 .73-1.5.09.09 0 0 1 .094-.047c2.055.355 4.02.976 5.856 1.82q.023.012.035.035M12.77 12.093c.02-1.59-1.137-2.905-2.586-2.905-1.442 0-2.586 1.304-2.586 2.906 0 1.601 1.168 2.906 2.586 2.906 1.437 0 2.586-1.305 2.586-2.906m9.554 0c.024-1.59-1.133-2.905-2.582-2.905-1.441 0-2.586 1.304-2.586 2.906 0 1.601 1.168 2.906 2.586 2.906 1.45 0 2.582-1.305 2.582-2.906m0 0" style="stroke:none;fill-rule:nonzero;fill:#fff;fill-opacity:1"/></svg>