<svg xmlns="http://www.w3.org/2000/svg" width="1536" height="1536" version="1.2"><defs><radialGradient id="g1" cx="767.4" cy="725.6" r="490" gradientUnits="userSpaceOnUse"><stop offset="0" stop-color="#ffed59"/><stop offset=".3" stop-color="#ffc333"/><stop offset=".7" stop-color="#ff8d40"/><stop offset=".9" stop-color="#ff6337"/><stop offset="1" stop-color="#ff4031"/></radialGradient></defs><style>.s0{fill:#0c0c0c}.s1{fill:#ffe84b}.s2{fill:#ffe94b}.s6{fill:none;stroke:#2c2e35;stroke-width:10}</style><g id="Layer 6"><g id="Layer 7"><g id="&lt;Group&gt;"><path id="&lt;Path&gt;" d="M585.7 1103.7c113.8 65.6 257 70.3 376.4-.2l97.1 164.7c-179.2 105.7-394 98.6-564.7.2z" class="s0"/><path d="m950.3 444.8-91.1 164.7c-56.9-32.8-128.5-35.2-188.3.1l-97-164.7c119.4-70.4 262.6-65.7 376.4-.1M1521 774.2c4.6 262.6-125.8 517.8-364.7 658.7l-97.1-164.7c179.2-105.6 277-297 273.6-494z" class="s1"/><path d="m1059.2 1268.2 97.1 164.7c-239 140.8-525.4 131.4-752.9.2l91.1-164.7c170.7 98.4 385.5 105.5 564.7-.2M670.9 609.6 768 774.2H579.8c-1.2-65.6 31.4-129.4 91.1-164.6M1413 394c70.8 120 105.8 251 108 380.2h-188.2c-1.7-96.9-27.9-195.1-81-285.2-53.1-90-126.4-160.5-210.3-208.9l91.1-164.7c112 64.5 209.7 158.5 280.4 278.6M768 774.2l97.1 164.7c-59.8 35.2-131.4 32.8-188.3 0z" class="s0"/><path d="m1041.5 280.1-91.2 164.7c-113.8-65.6-257-70.3-376.4.1l-97.1-164.7c179.2-105.6 394-98.5 564.7-.1" class="s2"/><path d="M1144.5 774.2H956.2c-.5-32.3-9.2-65-26.9-95-17.7-30.1-42.2-53.6-70.1-69.7l91.1-164.7c56 32.3 104.8 79.3 140.2 139.3s52.9 125.5 54 190.1" class="s0"/><path d="m585.7 1103.7-91.2 164.7c-83.9-48.4-157.2-118.9-210.3-209-53.1-90-79.3-188.3-81-285.2h188.3c1.1 64.6 18.6 130.1 54 190.2 35.4 60 84.2 107 140.2 139.3" class="s2"/><path d="m1132.6 115.4-91.1 164.7c-170.7-98.4-385.5-105.5-564.7.1l-97.1-164.6c239-140.9 525.4-131.4 752.9-.2" class="s1"/><path d="M1332.8 774.2h-188.3c-1.1-64.6-18.6-130.1-54-190.1s-84.2-107-140.2-139.3l91.2-164.7c83.9 48.4 157.2 118.9 210.3 208.9 53.1 90.1 79.3 188.3 81 285.2m-376.6 0H768l91.2-164.7c27.9 16.1 52.4 39.6 70.1 69.7 17.7 30 26.4 62.7 26.9 95" class="s0"/><path d="m676.8 938.9-91.1 164.8c-56-32.3-104.8-79.3-140.2-139.3-35.4-60.1-52.9-125.6-54-190.2h188.3c.5 32.3 9.2 65.1 26.9 95.1s42.2 53.5 70.1 69.6" class="s1"/><path d="M1144.5 774.2h188.3c3.4 197-94.4 388.4-273.6 494l-97.1-164.7c119.5-70.4 184.7-198 182.4-329.3" class="s2"/><path d="M962.1 1103.5c-119.4 70.5-262.6 65.8-376.4.2l91.1-164.8c56.9 32.8 128.5 35.2 188.3 0zM379.7 115.6l97.1 164.6c-179.2 105.7-277 297.1-273.6 494H15c-4.6-262.6 125.8-517.8 364.7-658.6" class="s0"/><path d="M956.2 774.2c1.2 65.7-31.4 129.5-91.1 164.7L768 774.2z" class="s2"/><path d="m573.9 444.9 97 164.7c-59.7 35.2-92.3 99-91.1 164.6H391.5c-2.3-131.3 62.9-258.9 182.4-329.3" class="s0"/><path d="M403.4 1433.1c-112-64.5-209.7-158.6-280.4-278.6C52.2 1034.4 17.2 903.4 15 774.2h188.2c1.7 96.9 27.9 195.2 81 285.2 53.1 90.1 126.4 160.6 210.3 209zm741.1-658.9c2.3 131.3-62.9 258.9-182.4 329.3l-97-164.6c59.7-35.2 92.3-99 91.1-164.7z" class="s1"/><path d="M859.2 609.5 768 774.2l-97.1-164.6c59.8-35.3 131.4-32.9 188.3-.1" class="s2"/><path d="m476.8 280.2 97.1 164.7c-119.5 70.4-184.7 198-182.4 329.3H203.2c-3.4-196.9 94.4-388.3 273.6-494" class="s0"/><path d="m768 774.2-91.2 164.7c-27.9-16.1-52.4-39.6-70.1-69.6s-26.4-62.8-26.9-95.1z" class="s2"/></g></g><g id="Layer 2"><path d="M1101.1 1338.8c-16.3 0-32.7-1.1-48.8-3.4-81.3-11.5-137.3-49.3-170.8-71.8-43.3-29.2-81.7-65.1-114.1-106.7l-3.5-4.4-3 4.7c-21.7 33.9-48.4 63.8-79.2 89.1-66.4 54.3-136.2 74.4-183.1 81.6-19 3-38.4 4.4-57.6 4.4-39.1 0-78.6-6.1-116-17.9q15.8 1.5 31.8 1.5c41.3 0 81.4-7.7 118.9-22.8 41.7-16.8 80.3-43.1 111.5-76 57.2-60.3 77-124.2 83.5-167.1 23.1-151.4-81.6-258.9-86.1-263.4-58.7-59.1-137-89.8-232.8-91.2q-3.4-.1-7.9-.1c-60.8 0-148.7 14.1-222.3 81.1-29.2 26.6-53.3 59.3-70.8 95.9 8-39.2 24.7-87.8 59.2-135.6 55.4-76.9 125.8-107.9 155.9-121.2 46.8-20.6 96.8-32.3 148.5-34.6l6.5-.3-3.2-5.7c-21.7-38.6-35.9-80.2-42-123.6-4.2-29.5-7.8-89.6 14.9-160.7 18.7-58.9 48.9-104.3 70.9-132 19.4-24.5 35.9-39.6 45-46.3-1.2 1.8-2.5 3.8-3.9 5.8-14.7 22-45.2 67.7-57.3 133-8 43.7-14.1 129.6 35.5 215.3 15 26 49.5 75 111.4 111.4 50.5 29.8 112.1 46.1 173.2 46.1 64.5 0 126.2-17.7 178.5-51.2 24-15.3 104.8-73.9 136.7-182.2 6.9-23.5 28-95-.1-179.9-10.6-32.2-27.4-62.9-49.1-89.9 37.7 24.6 68.4 56.4 89.4 93.2 41.2 71.9 36.1 143 32 200.2-4 55-17.4 109.3-39.7 161.2l-2.3 5.2 5.7.4c46.1 3 91.1 13 133.8 29.7 30.8 12 94.8 37.1 151 99 47.9 52.6 71.3 111 82.7 158.1-20-37.9-47.1-71.7-79.7-98.9-69.7-58.3-142.9-69.7-166.9-73.4-10.7-1.6-32.8-5.1-60.8-5.1-48.8 0-94.7 10.3-136.6 30.5-99.5 48-170.1 149.3-179.7 258.2-3 33.5-3.8 120.4 53.2 202.6 49.3 71.3 116.4 100.5 141.7 111.4 45.4 19.8 93.9 29.8 144.2 29.8q4.2 0 8.5-.1c-35.1 10.7-70.8 16.1-106.8 16.1" style="fill:url(#g1)"/><path id="&lt;Compound Path&gt;" fill-rule="evenodd" d="M514.3 104.4c5.4 3.8-48.1 55.5-65 147.5-5.9 32-17.3 122.3 35 212.5 8.9 15.5 42.6 70.3 110 110 49.6 29.2 109.7 45.5 171.1 45.5 60.4 0 122-15.7 176.4-50.5 15.4-9.9 101.7-67.1 135-180 7.5-25.7 27-95.5 0-177.5-17.4-52.7-46.7-88.4-65-107.5 30.4 16.5 79 49 112.5 107.5 41.8 73 36.5 145.6 32.5 202.5-2.9 39.4-11.8 97-40 162.5 32.4 2.1 80.6 8.7 135 30 33.5 13.1 96.7 38.7 152.5 100 65.9 72.6 84.1 154.2 90 192.5-11.3-27.9-37.3-81.3-92.5-127.5-67.5-56.5-138.3-68.4-165-72.5-12.6-2-33.7-5.1-60.2-5.1-37.3 0-85.2 6.1-134.8 30.1-94.5 45.5-167.6 142.3-177.5 255-1.9 21.4-7.7 113 52.5 200 47.6 68.9 110.8 97.3 140 110 54.8 23.8 105.8 29.4 142.6 29.4 15 0 27.7-.9 37.4-1.9-28.7 11.1-76.5 25.9-135.7 25.9-15.7 0-32.2-1-49.3-3.4-80.6-11.4-135.5-47.6-172.5-72.5-55.1-37.1-92.2-78.2-115-107.5-15.6 24.3-41.1 58-80 90-75.3 61.6-153.8 77.6-185 82.5-20.4 3.1-39.9 4.4-58.3 4.4-73 0-128.7-20.8-154.2-31.9 14.5 3.1 39.1 7.5 70 7.5 33.5 0 74.3-5.1 117.5-22.5 53.7-21.7 89.8-53.8 110-75 15.5-16.4 68.6-74 82.5-165 22.5-148.2-78.8-253.8-85-260-87.3-87.9-197.9-89.6-230-90q-3.4-.1-7.9-.1c-39.1 0-137.5 5.3-219.6 80.1-49.4 44.9-72.2 96.1-82.5 125 3.4-32.3 15.3-101.1 65-170 55-76.3 125.1-108.3 157.5-122.5 60.9-26.9 115.8-33.5 150-35-14.6-25.9-34.6-68.7-42.5-125-2.4-17-10.4-82.7 15-162.5 35.6-112 115.8-185.2 126.6-185.2q.5 0 .9.2M463.1 163c-21.3 27.2-50.5 71.5-68.7 128.8-22.4 70.3-18.8 129.8-14.7 159 6 42.9 20 84 41.5 122.1l6.4 11.4-13 .6c-51.2 2.3-100.7 13.8-147.1 34.3-14 6.2-40.1 17.7-69 37.3-33.4 22.6-62.1 50.4-85.3 82.5-25.5 35.5-41.2 71.3-50.8 103.3 15.6-25.7 34.6-49 56.5-68.8 74.6-67.9 163.5-82.2 225-82.2 3.2 0 5.9 0 8 .1 96.9 1.4 176.1 32.5 235.5 92.3 3.1 3.1 30.7 31.6 54.8 78.8 30.8 60.4 42 125.5 32.5 188.1-6.7 43.5-26.7 108.2-84.6 169.3-31.6 33.3-70.6 59.9-112.9 76.9-36.6 14.8-75.5 22.5-115.8 23.1 26.2 5.6 53 8.4 79.6 8.4 19 0 38.2-1.4 57-4.3 25.1-3.9 50.1-10.5 74.5-19.6 39-14.6 74.9-35.2 106.7-61.2 30.5-25 56.8-54.6 78.3-88.1l6.1-9.6 7 9c32.1 41.2 70.2 76.8 113.1 105.7 15.9 10.7 39.9 26.9 68.9 40.8 32.6 15.6 65.4 25.5 100.3 30.4 15.9 2.3 32.1 3.4 48.2 3.4 26.1 0 52.1-2.8 77.7-8.6-43.5-2.3-85.5-12.2-125.2-29.5-25.6-11.1-93.5-40.6-143.4-112.8-57.7-83.3-56.9-171.3-53.9-205.2 9.7-110.3 81.2-212.9 182-261.5 42.4-20.5 88.9-30.9 138.3-30.9 28.3 0 50.6 3.5 61.4 5.2 24.3 3.7 98.3 15.2 168.9 74.2 25 20.9 46.8 45.6 64.7 73.1-13.3-40.2-35.6-85.1-73.3-126.6-55.6-61.1-119-86-149.5-97.9-42.3-16.5-86.9-26.5-132.6-29.4l-11.3-.8 4.5-10.4c22.2-51.5 35.4-105.3 39.4-159.9 4-56.6 9.1-127-31.5-198-14.4-25-33.1-47.7-55.7-67.4q-5.9-5.1-12.2-10c14.9 22.1 26.7 46.1 34.9 71 28.4 86.1 7.1 158.4.1 182.2-32.3 109.7-114 168.9-138.3 184.5-53 33.9-115.5 51.8-180.7 51.8-61.8 0-124.1-16.5-175.2-46.6-62.7-36.9-97.6-86.6-112.9-112.9-50.2-86.8-44.1-173.8-35.9-218 9.2-50.1 29.2-88.7 44.7-114.2-6.9 7.3-14.7 16.2-23 26.8" style="fill:#2c2e35"/></g><path id="Layer 5" d="M789.1 468.1c4.3-6.5 12.7-17.2 27-24 34.2-16.2 69.2 5.7 72 7.5 12.2-.9 48.7-2.2 85.5 21 32.4 20.4 47.2 48.5 52.5 60 10.5 1.8 40.2 8.4 64.5 34.5 15.6 16.8 22.4 34.7 25.5 45 11.2 12.8 26.9 34.3 36 64.5 18.6 62.2-4.8 115.5-12 130.5 7.9 23.5 17.9 63.3 13.5 112.5-3 33.3-11.7 60.4-19.5 79.5 1.3 5 9.4 39-12 67.5-10.7 14.2-24.1 20.9-31.5 24-1.8 6.9-6.6 20.9-19.5 30-20.1 14-51.8 10.6-76.5-10.5-10.7 1.8-28.5 3.4-49.5-1.5-17.4-4.1-30.6-11.1-39-16.5-5.7 11.1-17 29.8-37.5 46.5-9.6 7.7-29.5 21.9-57 28.1-57.9 13.1-103.7-18-109.5-22.1-20.6-14.5-32.7-31.6-39-42h-22.5c-4.9 5-14.3 13.3-28.5 18-25 8.3-46.6-.4-52.5-3-1.4 1-28.6 20.4-60 7.5-31.7-13.1-37.3-46.4-37.5-48-3.9-1.4-29-10.3-40.5-37.5-10.8-25.6-1.7-48.4 0-52.5-4.1-4-28.1-27.8-27-64.5.8-25.4 13.1-43.2 18-49.5-1.9-2.9-11.7-18.1-7.5-37.5 2.8-12.7 10.1-20.8 13.5-24-8.4-32.1-12.6-59.4-15-79.5-6.4-54.5-.4-70.4 4.5-79.5 9.2-17.2 23.4-27.4 33-33 0-5.5.4-34.9 24-58.5 24.9-24.9 56.3-24.2 61.5-24 19-26.9 38.1-45.9 52.5-58.5 30.8-26.9 45.7-29.5 54-30 15.5-.9 28.2 4.7 36 9 5.1-4.8 24-21.2 52.5-22.1 40.2-1.3 64.9 29.2 67.5 32.6z" style="fill:#d6797d;stroke:#2c2e35;stroke-width:10"/><path d="M712.5 1030.3c.9 16.2-6 32.3-16.9 44.4-10.8 12.1-25.4 20.4-40.9 25.6m244.9-644.5c-13.3 20.2-24 42.1-31.7 65.1m-53.5 44.6c-3.7 6.6-3.4 14.9-1.5 22.3s5.1 14.4 7 21.7c2.5 9.7 2.6 19.8 2.6 29.8.1 7.1 0 14.5-3.3 20.8-3.5 6.7-10.5 11.2-17.8 13.5-7.3 2.2-15 2.5-22.7 2.7M584 721.6c-1.1-16.8-2.1-34.1 3.4-50.1 2.5-7.6 6.5-14.6 9.4-22 4.8-11.9 6.8-24.7 8.8-37.4M479.9 717q4-12.6 8.9-24.9c3.6-8.9 7.6-17.9 13.6-25.3 6-7.5 13.8-13.2 20.6-19.9 6.8-6.6 12.9-14.9 13.9-24.3m-58.3 136.6c-5.9 8.8-8.1 20-6 30.3 2.1 9.8 7.7 18.5 10.4 28.1 2.6 9.3 2.2 19.2 1.9 28.9l-2 56.6m59.4-124c5.5 12.5 13.1 24 22.4 34 5.1 5.5 11.1 12.4 8.6 19.4-.9 2.7-3.1 4.9-4.6 7.3-3.6 5.8-3.6 13.1-3.6 20 .2 18 .5 36.6 8.4 52.8 4.1 8.6 10.3 16.3 12.3 25.6 2.1 9.7-.6 20 1.8 29.6m122 3.2c3.3-11.1 5.4-22.6 6.2-34.2.1-2.6.2-5.4-.9-7.8-1.9-3.7-6.1-5.4-9.7-7.4-14.3-8.2-21.1-25-24.5-41-3.4-16.1-4.7-33-12.2-47.5-9.6-18.6-28.3-31.1-38-49.6-11.2-21.3-8-49.3 7.6-67.6M892.5 819c-17.5 25.7-9 62.1-24.2 89.2-9.5 16.9-27.5 28.5-34.1 46.7-3.7 10.2-3.5 21.3-3.1 32.2m99.7-122.9c1.8 20.9 3.4 43-5.9 61.7-3.8 7.8-9.4 14.6-13.5 22.2-8.3 15.5-10.2 34.3-5 51.1.2.6 1.4.1.7.1m219.5-309.2c-2 34 3.3 68.4 15.4 100.3m-63.2 104.4c-11.4-18.5-13.2-41.4-10.9-63s8.4-42.6 11.9-64m-94 188.3c-8.9-30.7-9.3-63.9-1-94.8 8.9-33.4 27.8-66.9 19.3-100.4m-1.7-218.8q-10.2-3-20.3-6c-2.6-.7-5.3-1.5-7.3-3.2-2.5-2-3.8-4.9-5.3-7.6-6.9-12.3-18.7-21.8-32.2-25.8-7.1-2.1-16.4-4.6-17-12m99.8 111c-1.3 10.8-13.7 16.1-24.4 18.1s-23.1 4-28.4 13.5m-95.7 55.4c11 2.3 24.9-3.9 32.4 4.4 3.3 3.7 3.9 9 4.5 13.9 2.1 17.2 5.8 34.3 11.2 50.9M737 612.5c2.9-.4 4 3.6 4 6.5q-.5 34.1-1.8 68.1M714.1 556c-9.9 16.4-17.9 34-23.9 52.2-4.8 14.5-9.3 30.9-22.4 38.8m-45.6-167.7c-4.9 6.3-4.9 15.1-8.6 22.2-7.9 14.9-28.1 16.9-42.9 25.1-10.4 5.7-18.7 15.2-22.9 26.3m230.4 37.5c-19.2-5.5-39.3-11.8-52.7-26.6-5.8-6.4-10-14.1-14.1-21.7l-14-26m74.9 249.4c-18.1 2.6-39.2 4.4-52.1-8.6-6.6-6.6-9.7-16-13-24.8-6.8-18.4-15.6-36-26.2-52.5m98.3 195c0-6.1 5.5-10.6 10.9-13.3 5.4-2.8 11.5-5 14.9-10 1.8-2.8 2.6-6.1 3.2-9.4 1.4-7.8 1.9-15.8 4.3-23.4 2.3-7.5 6.9-14.9 14-18.4 8.9-4.3 21.4-2.8 26.7-11.2" class="s6"/><path d="M870 508.6c-3.4 29.8-6 60.4 1.1 89.6 3.5 14.7 9.4 28.8 12.2 43.7s2.1 31.3-6.7 43.7c-3.8 5.3-8.8 9.6-13.1 14.6-11 12.9-15.7 29.8-20.2 46.2m64.6-189.7c-3.1 11.4 1.1 23.8 8.8 32.7s18.5 14.7 29.5 18.7c10.8 3.9 23.9 8.1 26.8 19.2.7 2.6.7 5.3.7 8l-.2 75.8m65.6 10.5c10.8-3.6 15.3-17.2 13.1-28.3-5.6-27.6-31.7-47.9-34.2-77.2-2.3-25.8 15.2-49.1 9-75.8m-360.2 26q-16.2 17.55-34.5 33c-8.5 7.3-17.5 14.3-28 18.5-19.4 7.9-41.4 5.1-62 1.5-5.8-1-12-2.3-16.2-6.5-5.1-5.2-5.6-13.1-5.7-20.3-.1-15 .6-30 2-44.9m-66.6 127.3c8-8.1 8.3-20.7 9.4-32 2.6-28.1 12.6-55.4 28.8-78.4m-68.5 122.6c-2.7 14.9-.3 30.2-.4 45.3 0 15.2-3.1 31.5-14.2 41.8M841.8 1071q-5.4-15-10.7-29.9m-127.8 17.4c11-5.5 17.5-18.8 15.2-30.9m-208.2-33.8c27.3 5.1 54.3 2.6 77.1-13.3-21.5 15.5-46.9 19.1-35.5 53.1M1133.8 888q.4 18.2.3 36.4c0 8.5-.8 18.4-7.9 23.2m-144.7 62.1q6.1-2.9 12.3-5.8c7.3-3.6 14.9-7.2 23-8.1 7.6-.9 15.3.5 22.9.1s15.9-3.4 19.4-10.2" class="s6"/><path d="M1088.2 943.2c9.7 14 9.2 32.4 8.3 49.3-.5 9.7-1.1 19.5-5.2 28.2-9.1 19-32.3 26.7-53.3 27.8-4.1.2-8.4.2-12.5 1.1-10.5 2.2-19.1 9.9-29.3 13.2m.4 45.4c-6.5-20.7-4.9-45.1-19.2-61.4m-80 6.6c4.2 13.3 3.3 26 7.5 39.3-6.4-1.2-12.9.1-19.4-.1-19.2-.6-37.2-15-41.9-33.6m-176.1 35.5c20.7-4.4 37.9-22.2 41.6-43m-62.2 49.8c13.7-16 20.8-37.6 19.2-58.6m-114 19.4c-21.7-2.9-45.4 5.3-65-4.4-10.3-5.2-17.9-14.8-22.8-25.2s-7.4-21.8-9.9-33.1M561 1116.1c-1.5-24.7 8.3-49.8 26.1-67m-125 26.3c8.4 1.5 17 2.1 25.5 1.7m-30-133.5q-.6 13.8-1.3 27.5c-.2 4.1-.4 8.5-2.6 11.9-2.9 4.4-8.7 6.5-13.9 5.7-5.2-.9-9.8-4.3-12.8-8.5m-14.1-105.1c10.7 8.4 15.9 22.3 16.7 35.8.9 13.6-2.1 27.1-5.1 40.3M1134.8 815c3 20.3-12.2 38.4-26.3 53.4q-24.3 25.9-48.7 51.8c-6.4 6.8-12.8 13.6-20.1 19.5-10.9 8.7-23.8 15.2-37.4 18.7-8.6 2.2-18 3.5-24.9 9.2-3.7 3.2-6.4 7.4-9.4 11.2-15.4 19.5-42.7 28.5-66.7 22.1-30.5 32.4-84.1 40-122.4 17.3-42 14.6-91.3 5.7-125.4-22.6-3.3-2.8-6.6-5.7-10.6-7.3-6.5-2.4-13.7-.8-20.6-.2-8.2.6-16.8-.6-23.6-5.3-6.7-4.7-11.1-13.3-9-21.2-43.7 15.1-97.3-12.9-109.8-57.4-16.6 8.8-38-2-47.5-18.1s-10.3-35.7-10.9-54.5c-.4-11.8-1.9-25.8-12.2-31.7" class="s6"/><path d="M788.2 1009.1c-12.5-70.1-15.7-141.9-9.6-212.8 1.2-13.5 2.7-27.1 1.7-40.7-1-14-4.6-27.8-4.5-41.8.2-14.4 4.3-28.4 6.2-42.6 3.5-25.4-.1-51.2-1.4-76.9-2.2-41.1 1.5-82.5 10.8-122.6" class="s6"/></g></svg>