<svg xmlns="http://www.w3.org/2000/svg" version="1.2" viewBox="60 217.5 941.44 646.5"><path d="m575 388 55-89s3.5-5.6 8-10c4.1-4 9-7 9-7s3.8-2.6 8-4c5.2-1.8 11-2 11-2s3.5.3 7 1c3.6.8 7 2 7 2s3.8 1.7 7 4c7.3 5.2 12.9 12.6 12.9 12.6L708 307l13 22 269 461s4.2 6.2 7 13c2.6 6.3 4 13 4 13s1 6.2 0 12c-1 5.7-4 11-4 11s-1.8 4.7-5 8c-3.6 3.8-9 6-9 6s-4.9 1.9-10 3c-7.8 1.8-16 2-16 2l-108-1z" style="opacity:1;fill-opacity:.5;fill:#00aeae"/><path d="m813 861-717 3s-5.8-2-11-5c-6.4-3.7-12-9-12-9s-4.1-5.7-7-12c-3.3-7.1-5-15-5-15s-1-7-1-14 1-14 1-14l15-27 298-531s3.2-3.8 7-7c4.6-3.9 10-7 10-7s5.2-2.9 10.8-4.3c5.3-1.2 10.8-1.2 10.8-1.2s5.4.8 10.4 2.5c5.7 1.9 11 5 11 5s4.3 3.2 8 7c5.7 5.9 10 13 10 13z" style="fill:#00aeae"/></svg>