<svg xmlns="http://www.w3.org/2000/svg" viewBox="0 321.18 960 219.82"><path fill="transparent" d="m0 389 26.7-17.2c26.6-17.1 80-51.5 133.3-50.6 53.3.8 106.7 36.8 160 64.8s106.7 48 160 33.5 106.7-63.5 160-79.8c53.3-16.4 106.7 0 160 22.6 53.3 22.7 106.7 51.7 133.3 66.2L960 443v98H0Z"/><path fill="#0B0619" d="m0 355 26.7-5c26.6-5 80-15 133.3-2.2 53.3 12.9 106.7 48.5 160 73.4 53.3 24.8 106.7 38.8 160 45 53.3 6.1 106.7 4.5 160-13s106.7-50.9 160-52.5C853.3 399 906.7 429 933.3 444l26.7 15v82H0Z"/><path fill="#140731" d="m0 505 26.7-2.8c26.6-2.9 80-8.5 133.3-17.7s106.7-21.8 160-40.3 106.7-42.9 160-35.2 106.7 47.3 160 66 106.7 16.3 160 4.3 106.7-33.6 133.3-44.5L960 424v117H0Z"/><path fill="#1E004C" d="m0 501 26.7-3c26.6-3 80-9 133.3-8s106.7 9 160 11.3c53.3 2.4 106.7-1 160-10s106.7-23.6 160-26.6 106.7 5.6 160 4.6 106.7-11.6 133.3-17L960 447v94H0Z"/></svg>