<svg xmlns="http://www.w3.org/2000/svg" width="100" height="101" fill="none"><path fill="url(#a)" d="M50 61.669c-15.699 7.79-34.409 7.474-50-1.158 1.183 5.263 3.118 10.21 5.806 14.631 3.764 6.316 11.398 9.58 18.603 7.895 3.44-.737 6.774-2.105 10-3.895 7.096-4 12.58-10.105 15.591-17.473"/><path fill="url(#b)" d="M65.806 2.51C60.86.933 55.484.09 50 .09h-.108c-7.526 0-14.086 4.842-16.344 11.79-.967 3.262-1.613 6.736-1.613 10.42 0 8.106 2.796 15.79 7.742 22 .968-17.157 10.646-32.842 26.13-41.79"/><path fill="url(#c)" d="M34.194 97.669C39.14 99.248 44.516 100.09 50 100.09h.108c7.526 0 14.086-4.842 16.344-11.79.967-3.263 1.612-6.736 1.612-10.42 0-8.106-2.795-15.79-7.741-22-.968 17.157-10.646 32.841-26.13 41.789"/><path fill="url(#d)" d="M83.656 48.721c-7.204-4-15.376-5.578-23.333-4.42 14.73 9.368 23.87 25.368 23.978 42.947A50.1 50.1 0 0 0 94.41 75.142c3.763-6.315 2.903-14.42-2.259-19.789a34.6 34.6 0 0 0-8.494-6.632"/><path fill="url(#e)" d="M50 38.51c15.699-7.789 34.409-7.473 50 1.159-1.183-5.263-3.118-10.21-5.806-14.632-3.764-6.316-11.398-9.579-18.603-7.895-3.44.737-6.774 2.106-10 3.895-7.096 4-12.58 10.106-15.591 17.474"/><path fill="url(#f)" d="M16.344 51.458c7.204 4 15.376 5.58 23.333 4.421-14.73-9.368-23.87-25.368-23.978-42.947-3.979 3.474-7.42 7.579-10.108 12.21-3.763 6.316-2.903 14.421 2.258 19.79 2.474 2.526 5.27 4.737 8.495 6.526"/><path fill="url(#g)" d="M50 57.143c3.979 0 7.204-3.158 7.204-7.053S53.98 43.037 50 43.037s-7.204 3.158-7.204 7.053S46.02 57.142 50 57.142"/><defs><radialGradient id="a" cx="0" cy="0" r="1" gradientTransform="rotate(92.659 1.091 48.911)scale(57.9571 57.9519)" gradientUnits="userSpaceOnUse"><stop stop-color="#00B0FF"/><stop offset="1" stop-color="#06F"/></radialGradient><radialGradient id="b" cx="0" cy="0" r="1" gradientTransform="rotate(92.659 1.091 48.911)scale(57.9571 57.9519)" gradientUnits="userSpaceOnUse"><stop stop-color="#00B0FF"/><stop offset="1" stop-color="#06F"/></radialGradient><radialGradient id="c" cx="0" cy="0" r="1" gradientTransform="rotate(92.659 1.091 48.911)scale(57.9571 57.9519)" gradientUnits="userSpaceOnUse"><stop stop-color="#00B0FF"/><stop offset="1" stop-color="#06F"/></radialGradient><radialGradient id="d" cx="0" cy="0" r="1" gradientTransform="rotate(92.659 1.091 48.911)scale(57.9571 57.9519)" gradientUnits="userSpaceOnUse"><stop stop-color="#00B0FF"/><stop offset="1" stop-color="#06F"/></radialGradient><radialGradient id="e" cx="0" cy="0" r="1" gradientTransform="rotate(92.659 1.091 48.911)scale(57.9571 57.9519)" gradientUnits="userSpaceOnUse"><stop stop-color="#00B0FF"/><stop offset="1" stop-color="#06F"/></radialGradient><radialGradient id="f" cx="0" cy="0" r="1" gradientTransform="rotate(92.659 1.091 48.911)scale(57.9571 57.9519)" gradientUnits="userSpaceOnUse"><stop stop-color="#00B0FF"/><stop offset="1" stop-color="#06F"/></radialGradient><radialGradient id="g" cx="0" cy="0" r="1" gradientTransform="rotate(92.659 1.091 48.911)scale(57.9571 57.9519)" gradientUnits="userSpaceOnUse"><stop stop-color="#00B0FF"/><stop offset="1" stop-color="#06F"/></radialGradient></defs></svg>